<?xml version="1.0" ?><svg data-name="Clothing &amp; accessories" height="60" id="Clothing_accessories" viewBox="0 0 60 60" width="60" xmlns="http://www.w3.org/2000/svg"><title/><path d="M38,12a1,1,0,0,1-1-1V5a1.0013,1.0013,0,0,0-1-1H24a1.0013,1.0013,0,0,0-1,1v6a1,1,0,0,1-2,0V5a3.00328,3.00328,0,0,1,3-3H36a3.00328,3.00328,0,0,1,3,3v6A1,1,0,0,1,38,12Z" style="fill:#6d6daa"/><rect height="44" rx="4" ry="4" style="fill:#d6b5b0" width="58" x="1" y="11"/><path d="M35,33H25S1,33,1,23v3C1,36,25,36,25,36H35s24,0,24-10V23C59,33,35,33,35,33Z" style="fill:#750000;opacity:0.2"/><rect height="6" rx="1" ry="1" style="fill:#750000;opacity:0.2" width="12" x="24" y="32"/><path d="M55,52H5a4,4,0,0,1-4-4v3a4,4,0,0,0,4,4H55a4,4,0,0,0,4-4V48A4,4,0,0,1,55,52Z" style="fill:#750000;opacity:0.2"/><path d="M55,56H5a5.00589,5.00589,0,0,1-5-5V15a5.00589,5.00589,0,0,1,5-5H55a5.00589,5.00589,0,0,1,5,5V51A5.00589,5.00589,0,0,1,55,56ZM5,12a3.00328,3.00328,0,0,0-3,3V51a3.00328,3.00328,0,0,0,3,3H55a3.00328,3.00328,0,0,0,3-3V15a3.00328,3.00328,0,0,0-3-3Z" style="fill:#6d6daa"/><path d="M59,23c0,10-24,10-24,10H25S1,33,1,23V15a4,4,0,0,1,4-4H55a4.00005,4.00005,0,0,1,4,4Z" style="fill:#d6b5b0"/><path d="M55,11H5a4,4,0,0,0-4,4v3a4,4,0,0,1,4-4H55a4,4,0,0,1,4,4V15A4,4,0,0,0,55,11Z" style="fill:#fff;opacity:0.5"/><path d="M35,34H25c-1.021,0-25-.125-25-11V15a5.00589,5.00589,0,0,1,5-5H55a5.00589,5.00589,0,0,1,5,5v8C60,33.875,36.021,34,35,34ZM5,12a3.00328,3.00328,0,0,0-3,3v8c0,7.3833,16.60254,9,23,9H35c6.397-.002,23-1.62256,23-9V15a3.00328,3.00328,0,0,0-3-3Z" style="fill:#6d6daa"/><rect height="4" style="fill:#d4edff" width="10" x="25" y="31"/><path d="M35,36H25a1,1,0,0,1-1-1V31a1,1,0,0,1,1-1H35a1,1,0,0,1,1,1v4A1,1,0,0,1,35,36Zm-9-2h8V32H26Z" style="fill:#6d6daa"/></svg>