<?xml version="1.0" ?><!DOCTYPE svg  PUBLIC '-//W3C//DTD SVG 1.1//EN'  'http://www.w3.org/Graphics/SVG/1.1/DTD/svg11.dtd'><svg enable-background="new 0 0 78 78" height="78px" id="Layer_1" version="1.1" viewBox="0 0 78 78" width="78px" xml:space="preserve" xmlns="http://www.w3.org/2000/svg" xmlns:xlink="http://www.w3.org/1999/xlink"><path d="M39,0C17.461,0,0,17.461,0,39s17.461,39,39,39s39-17.461,39-39S60.539,0,39,0z M39,70.5  C21.604,70.5,7.5,56.396,7.5,39S21.604,7.5,39,7.5S70.5,21.604,70.5,39S56.396,70.5,39,70.5z M34.5,34.5c0-2.486-2.016-4.5-4.5-4.5  s-4.5,2.014-4.5,4.5S27.516,39,30,39S34.5,36.986,34.5,34.5z M48,30c-2.484,0-4.5,2.014-4.5,4.5S45.516,39,48,39s4.5-2.014,4.5-4.5  S50.484,30,48,30z M48,51H30c-1.656,0-3,1.343-3,3s1.344,3,3,3h18c1.656,0,3-1.343,3-3S49.656,51,48,51z" fill="#333F4F"/></svg>