<?xml version="1.0" ?><!DOCTYPE svg  PUBLIC '-//W3C//DTD SVG 1.1//EN'  'http://www.w3.org/Graphics/SVG/1.1/DTD/svg11.dtd'><svg enable-background="new 0 0 78 78" height="78px" id="Layer_1" version="1.1" viewBox="0 0 78 78" width="78px" xml:space="preserve" xmlns="http://www.w3.org/2000/svg" xmlns:xlink="http://www.w3.org/1999/xlink"><path d="M15,39L15,39c0,13.234,10.766,24,24,24s24-10.766,24-24v0H15z M39,0C17.461,0,0,17.461,0,39s17.461,39,39,39  s39-17.461,39-39S60.539,0,39,0z M39,70.5C21.604,70.5,7.5,56.396,7.5,39S21.604,7.5,39,7.5S70.5,21.604,70.5,39  S56.396,70.5,39,70.5z M30,30c2.484,0,4.5-2.014,4.5-4.5S32.484,21,30,21s-4.5,2.014-4.5,4.5S27.516,30,30,30z M48,30  c2.484,0,4.5-2.014,4.5-4.5S50.484,21,48,21s-4.5,2.014-4.5,4.5S45.516,30,48,30z" fill="#333F4F"/></svg>